<?xml version="1.0" encoding="UTF-8"?>
<svg width="256px" height="256px" viewBox="0 0 256 256" version="1.1" xmlns="http://www.w3.org/2000/svg" xmlns:xlink="http://www.w3.org/1999/xlink" style="background: #000000;">
    <defs></defs>
    <g id="Symbols" stroke="none" stroke-width="1" fill="none" fill-rule="evenodd">
        <g id="home_logo_2" fill="#FFFFFF">
            <path d="M95,79 L95,53 L116.957764,53 C132.043251,53 143.105942,56.4491231 150.145836,63.5116131 C156.018425,69.5537632 159.447719,78.620084 160.208445,90.9313137 C161.719113,92.1676928 163.148105,93.501011 164.495824,94.9316636 C173.88235,104.786301 178.575612,119.075525 178.575612,137.635092 C178.575612,156.030415 173.714733,170.319639 164.160591,180.502764 C154.1036,191.014377 139.520963,196.270184 120.245063,196.270184 L77,196.270184 L77,79 L95,79 Z M95,79 L95,139.720808 L116.622531,139.720808 C131.708018,139.720808 142.938325,136.107441 149.978219,129.044951 C156.850497,121.982461 160.370444,111.14236 160.370444,96.3604041 C160.370444,94.4851462 160.31623,92.6756587 160.208445,90.9313137 C150.446164,82.9415489 137.273067,79 120.580296,79 L95,79 Z" id="Combined-Shape"></path>
        </g>
    </g>
</svg>